<svg xmlns="http://www.w3.org/2000/svg" viewBox="0 0 1200 800"><defs><linearGradient id="sky" x2="0" y2="1"><stop stop-color="#17243d"/><stop offset=".55" stop-color="#536d92"/><stop offset="1" stop-color="#dbe8f4"/></linearGradient><linearGradient id="snow"><stop stop-color="#fff"/><stop offset="1" stop-color="#d9e6f2"/></linearGradient></defs><rect width="1200" height="800" fill="url(#sky)"/><circle cx="930" cy="150" r="75" fill="#fff" opacity=".9"/><path d="M0 610 Q230 500 430 620T820 585T1200 570V800H0Z" fill="#eef6fb"/><path d="M0 690 Q250 600 520 700T1200 650V800H0Z" fill="#c9d9e8"/><rect x="160" y="430" width="250" height="170" rx="8" fill="#2c3548"/><path d="M135 440L285 325 435 440Z" fill="#1e2739"/><rect x="195" y="475" width="65" height="55" fill="#f7dca1"/><rect x="300" y="475" width="65" height="55" fill="#f7dca1"/><g fill="#fff" opacity=".75"><circle cx="120" cy="150" r="6"/><circle cx="300" cy="110" r="8"/><circle cx="520" cy="190" r="5"/><circle cx="720" cy="90" r="7"/><circle cx="1080" cy="290" r="6"/><circle cx="860" cy="330" r="5"/></g><text x="70" y="90" fill="#fff" font-family="Georgia" font-size="46">WINTER VIBE</text></svg>